# xmcd
#
# Track frame offsets: 
#        150
#        13473
#        24718
#        37043
#        47160
#        58090
#        71655
#        83448
#        95550
#        106688
#        119785
#        131250
#
# Disc length: 1914 seconds
#
# Revision: 5
# Processed by: cddbd v1.5.2PL0 Copyright (c) Steve Scherf et al.
# Submitted via: ExactAudioCopy v0.95b4
#
DISCID=a507780c
DTITLE=John Lee Hooker - Boogie Chillun
DYEAR=1994
DGENRE=Blues
TTITLE0=I'm Going Upstairs
TTITLE1=Boom Boom
TTITLE2=I'm In The Mood
TTITLE3=Dimples
TTITLE4=I'm Mad Again
TTITLE5=Baby Lee
TTITLE6=Boogie Chillun
TTITLE7=Let's Make It
TTITLE8=Bottle Up And Go
TTITLE9=Unfriendly Woman
TTITLE10=Hard Headed Woman
TTITLE11=Crawlin' Kingsnake
EXTD=
EXTT0=
EXTT1=
EXTT2=
EXTT3=
EXTT4=\n
EXTT5=
EXTT6=
EXTT7=
EXTT8=
EXTT9=
EXTT10=
EXTT11=
PLAYORDER=
